#!OML:ASF H:\Terrain\Patient Classification 1\Terrain2\Thursday\justin.ASF
:FULLY-SPECIFIED
:DEGREES
1406
root -10.8592 17.2071 14.1414 -0.82069 -12.3024 -1.71756
lowerback 6.27327 1.24306 -0.676107
upperback 3.55442 1.61449 1.45994
thorax 0.0829312 0.780823 1.78074
lowerneck -13.0882 0.728537 -7.00054
upperneck 40.4283 2.28954 2.31507
head 16.7138 0.137843 2.67905
rclavicle 1.68967e-014 -7.7526e-015
rhumerus -31.803 -11.775 -74.0236
rradius 32.7954
rwrist -14.8891
rhand -23.3143 11.5088
rfingers 7.12502
rthumb 3.13953 -18.4478
lclavicle 1.68967e-014 -7.7526e-015
lhumerus -38.6297 5.76645 81.2597
lradius 48.7972
lwrist 3.99948
lhand -18.1784 25.9927
lfingers 7.12502
lthumb 8.0982 55.8175
rfemur -31.9044 -5.20113 18.8251
rtibia 40.017
rfoot -14.0051 12.7199
rtoes -7.66372
lfemur -0.168931 -6.51808 -23.5507
ltibia 28.403
lfoot 2.25249 -40.0518
ltoes 45.6402
1407
root -10.906 17.2008 14.2043 -0.424623 -11.965 -2.30684
lowerback 6.04483 1.31306 -0.0830417
upperback 3.5287 1.73835 1.55836
thorax 0.192726 0.84984 1.54654
lowerneck -13.1918 0.571743 -7.22621
upperneck 40.3045 2.0011 2.65347
head 16.6815 0.0388159 2.82145
rclavicle -2.00773e-014 -4.37326e-015
rhumerus -31.6698 -11.8201 -74.1444
rradius 32.7841
rwrist -14.8001
rhand -23.3098 11.6842
rfingers 7.12502
rthumb 3.14396 -18.2724
lclavicle -2.00773e-014 -4.37326e-015
lhumerus -38.8475 6.41354 80.6065
lradius 48.4707
lwrist 3.8195
lhand -18.8144 25.7194
lfingers 7.12502
lthumb 7.48426 55.567
rfemur -32.1739 -4.67546 19.7631
rtibia 38.5685
rfoot -13.2952 12.6489
rtoes -8.64232
lfemur -0.163687 -6.42174 -22.6144
ltibia 28.2027
lfoot 4.18409 -40.3277
ltoes 46.6259
1408
root -10.955 17.1983 14.2624 -0.00527335 -11.6675 -2.83631
lowerback 6.02295 1.42352 0.31629
upperback 3.30689 1.91034 1.74932
thorax -0.021667 0.941122 1.5056
lowerneck -13.1389 0.404865 -7.62056
upperneck 40.3278 1.73814 2.99368
head 16.691 -0.0801629 3.00155
rclavicle -9.39258e-015 -2.50469e-014
rhumerus -31.8145 -11.6561 -74.066
rradius 32.9046
rwrist -14.7329
rhand -23.2117 11.4675
rfingers 7.12502
rthumb 3.23861 -18.4876
lclavicle -9.39258e-015 -2.50469e-014
lhumerus -39.0826 6.79633 80.1087
lradius 47.7817
lwrist 3.9867
lhand -18.9455 25.7416
lfingers 7.12502
lthumb 7.35774 55.5937
rfemur -32.5697 -4.05194 20.6357
rtibia 37.2838
rfoot -12.3725 12.4084
rtoes -8.2233
lfemur -0.24577 -6.19574 -21.7306
ltibia 28.0483
lfoot 4.52103 -41.0826
ltoes 46.1333
1409
root -11.0015 17.1926 14.3299 0.0918879 -11.3006 -2.69558
lowerback 6.00679 1.51189 0.154884
upperback 3.22038 2.02165 1.74485
thorax -0.109789 0.995731 1.58359
lowerneck -13.0829 0.253642 -7.80251
upperneck 40.1426 1.54454 3.04678
head 16.5912 -0.169619 3.01866
rclavicle -1.49834e-014 3.18055e-015
rhumerus -31.7849 -11.5049 -74.0513
rradius 32.9043
rwrist -14.7744
rhand -23.2031 11.1412
rfingers 7.12502
rthumb 3.24701 -18.8138
lclavicle -1.49834e-014 3.18055e-015
lhumerus -39.183 7.31179 79.5565
lradius 47.0009
lwrist 3.91256
lhand -19.121 25.2765
lfingers 7.12502
lthumb 7.18832 55.1344
rfemur -32.7531 -3.91393 20.8248
rtibia 36.1239
rfoot -11.2685 12.5038
rtoes -5.75622
lfemur -0.0867073 -6.11163 -21.6914
ltibia 28.0025
lfoot 4.24874 -41.9131
ltoes 45.6033
1410
root -11.0464 17.1867 14.4054 0.151334 -10.9042 -2.97523
lowerback 5.93715 1.5347 0.538497
upperback 3.32028 2.06862 1.74928
thorax 0.0437458 1.02315 1.37428
lowerneck -13.3423 0.116327 -7.68056
upperneck 39.8871 1.39296 2.88614
head 16.5356 -0.22424 2.8958
rclavicle -3.49116e-014 1.98785e-016
rhumerus -31.5164 -11.4973 -74.2687
rradius 32.811
rwrist -14.6041
rhand -23.3762 11.0065
rfingers 7.12502
rthumb 3.07979 -18.951
lclavicle -3.49116e-014 1.98785e-016
lhumerus -39.1214 7.92397 78.8597
lradius 46.2728
lwrist 3.55401
lhand -19.4218 24.6037
lfingers 7.12502
lthumb 6.89799 54.4713
rfemur -32.6773 -4.08883 21.5436
rtibia 35.1238
rfoot -10.8464 12.4939
rtoes -5.79618
lfemur 0.219755 -6.10624 -21.2154
ltibia 27.9846
lfoot 4.9331 -42.4053
ltoes 46.1071
1411
root -11.0901 17.1846 14.4746 0.264663 -10.5153 -3.3862
lowerback 6.04535 1.6315 1.08205
upperback 3.23623 2.22908 1.80176
thorax -0.0871644 1.10951 1.1097
lowerneck -13.2853 -0.0875036 -7.73955
upperneck 39.6495 1.12312 2.83566
head 16.4178 -0.339293 2.83056
rclavicle -2.95195e-014 7.15625e-015
rhumerus -31.7156 -11.6029 -74.3115
rradius 33.0269
rwrist -14.474
rhand -23.5196 11.3599
rfingers 7.12502
rthumb 2.94134 -18.5995
lclavicle -2.95195e-014 7.15625e-015
lhumerus -39.2426 8.07697 78.3571
lradius 45.4009
lwrist 3.61466
lhand -19.6336 24.6991
lfingers 7.12502
lthumb 6.69357 54.5733
rfemur -32.6673 -4.2095 22.4238
rtibia 34.4258
rfoot -10.7869 12.0635
rtoes -6.98082
lfemur 0.463449 -6.10224 -20.5674
ltibia 27.8623
lfoot 5.08471 -42.7561
ltoes 46.0564
1412
root -11.1334 17.1923 14.5428 0.309605 -10.0697 -3.22782
lowerback 6.17831 1.77166 1.09131
upperback 3.03947 2.42395 1.78479
thorax -0.36456 1.20692 1.06664
lowerneck -12.856 -0.354368 -8.3237
upperneck 39.3392 0.776507 3.05505
head 16.1749 -0.523953 2.95914
rclavicle 1.44864e-014 1.98785e-016
rhumerus -32.0632 -11.6834 -74.081
rradius 33.1943
rwrist -14.5992
rhand -23.5425 12.1115
rfingers 7.12502
rthumb 2.91922 -17.8482
lclavicle 1.44864e-014 1.98785e-016
lhumerus -39.6044 8.2851 78.0008
lradius 44.5606
lwrist 3.44715
lhand -19.5286 24.993
lfingers 7.12502
lthumb 6.79487 54.8639
rfemur -32.6776 -4.25045 22.6472
rtibia 33.8828
rfoot -10.5027 11.3108
rtoes -7.35249
lfemur 0.590215 -6.31679 -20.5651
ltibia 27.8261
lfoot 3.87057 -43.1436
ltoes 44.881
1413
root -11.18 17.1656 14.622 0.238735 -9.65193 -3.26443
lowerback 6.21534 1.85575 1.22367
upperback 3.04295 2.54392 1.77701
thorax -0.37664 1.26824 0.975846
lowerneck -12.6537 -0.54645 -8.54999
upperneck 38.8685 0.457647 3.25555
head 15.9051 -0.642528 3.01773
rclavicle -8.4235e-015 -1.37161e-014
rhumerus -32.0564 -11.9274 -73.9947
rradius 33.1004
rwrist -14.4615
rhand -23.3788 12.1821
rfingers 7.12502
rthumb 3.07728 -17.7754
lclavicle -8.4235e-015 -1.37161e-014
lhumerus -39.8373 8.65052 77.4838
lradius 43.8005
lwrist 3.07635
lhand -18.8566 25.2976
lfingers 7.12502
lthumb 7.44355 55.1466
rfemur -32.5485 -4.22139 23.0493
rtibia 33.5986
rfoot -10.1436 10.5584
rtoes -7.21565
lfemur 0.974518 -6.38682 -20.3886
ltibia 27.7525
lfoot 5.69734 -43.395
ltoes 46.0022
1414
root -11.2307 17.1508 14.7029 0.180873 -9.33449 -3.48319
lowerback 6.24415 1.87916 1.4419
upperback 3.07552 2.58727 1.8125
thorax -0.351266 1.29184 0.887375
lowerneck -12.5013 -0.627554 -8.56756
upperneck 38.3606 0.293427 3.3371
head 15.6207 -0.683019 3.01132
rclavicle -3.12589e-014 -5.36719e-015
rhumerus -31.9839 -11.9424 -74.1046
rradius 32.9905
rwrist -14.1206
rhand -23.303 11.9254
rfingers 7.12502
rthumb 3.15049 -18.0311
lclavicle -3.12589e-014 -5.36719e-015
lhumerus -39.8085 9.03787 76.9133
lradius 42.5827
lwrist 3.13852
lhand -18.668 25.0482
lfingers 7.12502
lthumb 7.62563 54.8907
rfemur -32.3628 -3.97174 23.619
rtibia 33.5148
rfoot -10.1016 9.87896
rtoes -7.10935
lfemur 1.42966 -6.39571 -19.9768
ltibia 27.5996
lfoot 6.4745 -43.6385
ltoes 46.1387
1415
root -11.2768 17.1404 14.7837 0.181433 -8.94633 -2.98618
lowerback 6.22875 1.94164 1.05928
upperback 2.94338 2.65126 1.6428
thorax -0.4887 1.32133 0.920215
lowerneck -12.4039 -0.791802 -8.95846
upperneck 38.3101 0.0307242 3.6678
head 15.5949 -0.801622 3.18024
rclavicle -2.45996e-015 -9.14409e-015
rhumerus -32.1629 -11.7713 -74.2098
rradius 33.0106
rwrist -13.9589
rhand -23.4195 12.0208
rfingers 7.12502
rthumb 3.03796 -17.9373
lclavicle -2.45996e-015 -9.14409e-015
lhumerus -39.9397 9.40759 76.3465
lradius 41.4656
lwrist 3.08931
lhand -18.9287 24.6296
lfingers 7.12502
lthumb 7.37401 54.4811
rfemur -32.3953 -3.94232 23.4075
rtibia 33.6292
rfoot -10.2146 9.45102
rtoes -7.42492
lfemur 1.73993 -6.54637 -20.3858
ltibia 27.3479
lfoot 7.16782 -43.6648
ltoes 46.5597
1416
root -11.3145 17.1315 14.874 0.0992728 -8.47727 -2.21437
lowerback 6.12653 1.98169 0.478917
upperback 2.88931 2.67059 1.41779
thorax -0.503824 1.32794 1.01477
lowerneck -12.4061 -0.985249 -9.42732
upperneck 38.1793 -0.277886 4.08977
head 15.5597 -0.935668 3.39383
rclavicle -2.00027e-014 6.55989e-015
rhumerus -32.3335 -11.4375 -74.3356
rradius 33.2543
rwrist -14.1454
rhand -23.5266 12.2763
rfingers 7.12502
rthumb 2.93452 -17.6832
lclavicle -2.00027e-014 6.55989e-015
lhumerus -40.22 9.90024 75.8015
lradius 40.738
lwrist 2.82337
lhand -18.8851 24.7094
lfingers 7.12502
lthumb 7.41609 54.5594
rfemur -32.2786 -4.19491 22.8533
rtibia 33.7472
rfoot -10.0562 9.44718
rtoes -6.07427
lfemur 2.0608 -6.77917 -21.1704
ltibia 27.2363
lfoot 8.6771 -43.4376
ltoes 47.5989
1417
root -11.3493 17.1243 14.9685 -0.0124951 -7.97838 -2.184
lowerback 6.06998 1.97732 0.701157
upperback 2.93534 2.675 1.36589
thorax -0.412522 1.33247 0.840375
lowerneck -12.1666 -1.16399 -9.43858
upperneck 37.4828 -0.56241 4.07886
head 15.1837 -1.03379 3.31837
rclavicle 3.03147e-015 -2.78299e-015
rhumerus -32.4336 -11.1388 -74.5075
rradius 33.4967
rwrist -14.3639
rhand -23.6902 12.0615
rfingers 7.12502
rthumb 2.77657 -17.9001
lclavicle 3.03147e-015 -2.78299e-015
lhumerus -40.2845 10.0884 75.4185
lradius 39.713
lwrist 3.25799
lhand -19.3278 24.4599
lfingers 7.12502
lthumb 6.98868 54.3245
rfemur -31.9416 -4.58797 23.0862
rtibia 33.9363
rfoot -10.1764 9.8683
rtoes -3.79431
lfemur 2.56249 -6.98762 -21.137
ltibia 27.1833
lfoot 9.48131 -43.5817
ltoes 48.0762
1418
root -11.3896 17.1103 15.0535 -0.0134092 -7.41898 -2.66571
lowerback 6.0883 1.87412 1.31132
upperback 2.93447 2.57209 1.49275
thorax -0.401204 1.28565 0.635613
lowerneck -12.0443 -1.36663 -9.42173
upperneck 36.9613 -0.798013 3.85269
head 14.9261 -1.14436 3.16342
rclavicle -1.36664e-014 -2.06736e-014
rhumerus -32.329 -11.0406 -74.6591
rradius 33.5691
rwrist -14.2405
rhand -23.6221 11.8642
rfingers 7.12502
rthumb 2.84228 -18.0966
lclavicle -1.36664e-014 -2.06736e-014
lhumerus -40.3714 10.2546 75.0442
lradius 38.6198
lwrist 3.89933
lhand -19.8531 24.3776
lfingers 7.12502
lthumb 6.48161 54.2584
rfemur -31.5197 -4.65416 23.8334
rtibia 34.0866
rfoot -10.9582 9.81185
rtoes -4.18859
lfemur 2.84407 -7.0108 -20.4223
ltibia 27.2527
lfoot 11.1761 -43.7623
ltoes 49.078
1419
root -11.4357 17.0897 15.1347 0.0112384 -6.88614 -2.68679
lowerback 6.07339 1.7641 1.3526
upperback 2.90607 2.42922 1.55454
thorax -0.422796 1.21425 0.684745
lowerneck -12.2548 -1.60001 -9.75869
upperneck 36.7516 -1.02903 3.86327
head 14.9039 -1.28036 3.18625
rclavicle -7.35503e-015 7.35503e-015
rhumerus -32.0546 -11.0195 -74.7682
rradius 33.5244
rwrist -14.1722
rhand -23.3138 11.8876
rfingers 7.12502
rthumb 3.14009 -18.069
lclavicle -7.35503e-015 7.35503e-015
lhumerus -40.5012 10.7812 74.5213
lradius 37.5847
lwrist 3.61683
lhand -19.8083 24.6747
lfingers 7.12502
lthumb 6.52489 54.5542
rfemur -31.0761 -4.28092 24.0099
rtibia 34.1251
rfoot -11.6073 9.23751
rtoes -5.7347
lfemur 2.93776 -7.05174 -20.1856
ltibia 27.4919
lfoot 13.0311 -43.4368
ltoes 50.2019
